<mxfile host="65bd71144e">
    <diagram id="HeK9n_aeETbcf22E1hNt" name="第 1 页">
        <mxGraphModel dx="1596" dy="583" grid="1" gridSize="10" guides="1" tooltips="1" connect="1" arrows="1" fold="1" page="1" pageScale="1" pageWidth="827" pageHeight="1169" math="0" shadow="0">
            <root>
                <mxCell id="0"/>
                <mxCell id="1" parent="0"/>
                <mxCell id="2" value="&lt;div style=&quot;font-size: 18px; line-height: 24px;&quot;&gt;&lt;span style=&quot;&quot;&gt;try-catch-finally 处理机制示意图&lt;/span&gt;&lt;/div&gt;" style="rounded=1;whiteSpace=wrap;html=1;fillColor=#6d8764;fontColor=#000000;strokeColor=#3A5431;labelBackgroundColor=none;fontStyle=1;fontFamily=Verdana;" parent="1" vertex="1">
                    <mxGeometry x="320" y="120" width="320" height="60" as="geometry"/>
                </mxCell>
                <mxCell id="3" value="&lt;h2&gt;&lt;font color=&quot;#ffffff&quot; face=&quot;Verdana&quot;&gt;程序&lt;/font&gt;&lt;/h2&gt;" style="rounded=0;whiteSpace=wrap;html=1;align=left;verticalAlign=top;fillColor=#76608a;strokeColor=#432D57;fontColor=#ffffff;" parent="1" vertex="1">
                    <mxGeometry x="339.5" y="195" width="281" height="390" as="geometry"/>
                </mxCell>
                <mxCell id="4" value="&lt;br style=&quot;font-size: 13px&quot;&gt;&lt;font color=&quot;#33ff33&quot;&gt;try&lt;/font&gt; &lt;font color=&quot;#33ff33&quot;&gt;{&lt;/font&gt;&lt;br style=&quot;font-size: 13px&quot;&gt;&lt;span style=&quot;white-space: pre ; font-size: 13px&quot;&gt;&#9;&lt;/span&gt;// 代码（可能有异常）&lt;br style=&quot;font-size: 13px&quot;&gt;&lt;font color=&quot;#33ff33&quot;&gt;}&lt;/font&gt; &lt;font color=&quot;#33ff33&quot;&gt;catch&lt;/font&gt; (&lt;font color=&quot;#ff9933&quot;&gt;Exception&lt;/font&gt; e) &lt;font color=&quot;#33ff33&quot;&gt;{&lt;/font&gt;&lt;br style=&quot;font-size: 13px&quot;&gt;&lt;span style=&quot;white-space: pre ; font-size: 13px&quot;&gt;&#9;&lt;/span&gt;// 捕获到异常&lt;br style=&quot;font-size: 13px&quot;&gt;&lt;font color=&quot;#33ff33&quot;&gt;}&lt;/font&gt; &lt;font color=&quot;#33ff33&quot;&gt;finally&lt;/font&gt; &lt;font color=&quot;#33ff33&quot;&gt;{&lt;/font&gt;&lt;br style=&quot;font-size: 13px&quot;&gt;&lt;span style=&quot;white-space: pre ; font-size: 13px&quot;&gt;&#9;&lt;/span&gt;// finally 语句，始终执行&lt;br style=&quot;font-size: 13px&quot;&gt;&lt;font color=&quot;#33ff33&quot;&gt;}&lt;/font&gt;&lt;br style=&quot;font-size: 13px&quot;&gt;&lt;br style=&quot;font-size: 13px&quot;&gt;// 1. 当异常发生时，系统将异常封装成 Exception 对象 e，传递给 catch&lt;br style=&quot;font-size: 13px&quot;&gt;// 2. 得到异常对象后，程序员自己处理&lt;br style=&quot;font-size: 13px&quot;&gt;// 3. 如果没有发生异常，catch 代码块不执行&lt;br style=&quot;font-size: 13px&quot;&gt;// 4. 不管 try 代码块是否有异常发生，始终要执行 finally&lt;br&gt;// 5. 所以，通常将释放资源的代码，放在 finally" style="rounded=0;whiteSpace=wrap;html=1;labelBackgroundColor=none;align=left;verticalAlign=top;fillColor=#647687;strokeColor=#314354;fontColor=#ffffff;spacingLeft=12;fontFamily=Verdana;fontSize=13;spacingRight=9;" parent="1" vertex="1">
                    <mxGeometry x="360" y="240" width="240" height="320" as="geometry"/>
                </mxCell>
                <mxCell id="5" value="&lt;div style=&quot;font-size: 18px; line-height: 24px;&quot;&gt;&lt;span style=&quot;&quot;&gt;throws 处理机制示意图&lt;/span&gt;&lt;/div&gt;" style="rounded=1;whiteSpace=wrap;html=1;fillColor=#6d8764;fontColor=#000000;strokeColor=#3A5431;labelBackgroundColor=none;fontStyle=1;fontFamily=Verdana;" parent="1" vertex="1">
                    <mxGeometry x="-120" y="120" width="320" height="60" as="geometry"/>
                </mxCell>
                <mxCell id="10" style="edgeStyle=orthogonalEdgeStyle;html=1;entryX=0.75;entryY=0;entryDx=0;entryDy=0;fontFamily=Verdana;fontSize=13;fontColor=#FFFFFF;curved=1;exitX=1;exitY=0.5;exitDx=0;exitDy=0;strokeWidth=2;strokeColor=#FFFF33;fillColor=#e3c800;" parent="1" source="6" target="7" edge="1">
                    <mxGeometry relative="1" as="geometry"/>
                </mxCell>
                <mxCell id="6" value="&lt;font color=&quot;#ffffff&quot;&gt;JVM&lt;br&gt;&lt;div style=&quot;text-align: left&quot;&gt;&lt;span&gt;// 处理异常&lt;/span&gt;&lt;/div&gt;&lt;div style=&quot;text-align: left&quot;&gt;&lt;span&gt;// 输出异常信息&lt;/span&gt;&lt;/div&gt;&lt;div style=&quot;text-align: left&quot;&gt;&lt;span&gt;// 退出程序&lt;/span&gt;&lt;/div&gt;&lt;/font&gt;" style="rounded=0;whiteSpace=wrap;html=1;labelBackgroundColor=none;fontFamily=Verdana;fontSize=13;fontColor=#ffffff;fillColor=#76608a;strokeColor=#432D57;spacing=1;" parent="1" vertex="1">
                    <mxGeometry x="-120" y="195" width="140" height="75" as="geometry"/>
                </mxCell>
                <mxCell id="11" style="edgeStyle=orthogonalEdgeStyle;curved=1;html=1;entryX=0.75;entryY=0;entryDx=0;entryDy=0;fontFamily=Verdana;fontSize=13;fontColor=#FFFFFF;exitX=1;exitY=0.5;exitDx=0;exitDy=0;strokeWidth=2;strokeColor=#FFFF33;fillColor=#e3c800;" parent="1" source="7" target="8" edge="1">
                    <mxGeometry relative="1" as="geometry"/>
                </mxCell>
                <mxCell id="17" style="edgeStyle=orthogonalEdgeStyle;curved=1;html=1;entryX=0.25;entryY=1;entryDx=0;entryDy=0;fontFamily=Verdana;fontSize=13;fontColor=#FFFFFF;exitX=0;exitY=0.5;exitDx=0;exitDy=0;strokeWidth=2;strokeColor=#FFFF33;fillColor=#e3c800;" parent="1" source="7" target="6" edge="1">
                    <mxGeometry relative="1" as="geometry"/>
                </mxCell>
                <mxCell id="18" value="throws" style="edgeLabel;html=1;align=center;verticalAlign=middle;resizable=0;points=[];fontSize=13;fontFamily=Verdana;fontColor=#FF9933;labelBackgroundColor=none;" parent="17" vertex="1" connectable="0">
                    <mxGeometry x="-0.024" y="-2" relative="1" as="geometry">
                        <mxPoint y="-21" as="offset"/>
                    </mxGeometry>
                </mxCell>
                <mxCell id="7" value="&lt;font color=&quot;#ffffff&quot;&gt;main&lt;br&gt;&lt;div style=&quot;text-align: left&quot;&gt;&lt;span&gt;// 1. try-catch-finally&lt;/span&gt;&lt;/div&gt;&lt;div style=&quot;text-align: left&quot;&gt;&lt;span&gt;// 2. 抛出异常&lt;/span&gt;&lt;/div&gt;&lt;/font&gt;" style="rounded=0;whiteSpace=wrap;html=1;labelBackgroundColor=none;fontFamily=Verdana;fontSize=13;fontColor=#ffffff;align=center;fillColor=#76608a;strokeColor=#432D57;" parent="1" vertex="1">
                    <mxGeometry x="-60" y="310" width="150" height="60" as="geometry"/>
                </mxCell>
                <mxCell id="12" style="edgeStyle=orthogonalEdgeStyle;curved=1;html=1;entryX=0.75;entryY=0;entryDx=0;entryDy=0;fontFamily=Verdana;fontSize=13;fontColor=#FFFFFF;exitX=1;exitY=0.5;exitDx=0;exitDy=0;strokeWidth=2;strokeColor=#FFFF33;fillColor=#e3c800;" parent="1" source="8" target="9" edge="1">
                    <mxGeometry relative="1" as="geometry"/>
                </mxCell>
                <mxCell id="15" style="edgeStyle=orthogonalEdgeStyle;curved=1;html=1;entryX=0.25;entryY=1;entryDx=0;entryDy=0;fontFamily=Verdana;fontSize=13;fontColor=#FFFFFF;exitX=0;exitY=0.5;exitDx=0;exitDy=0;strokeWidth=2;strokeColor=#FFFF33;fillColor=#e3c800;" parent="1" source="8" target="7" edge="1">
                    <mxGeometry relative="1" as="geometry"/>
                </mxCell>
                <mxCell id="16" value="throws" style="edgeLabel;html=1;align=center;verticalAlign=middle;resizable=0;points=[];fontSize=13;fontFamily=Verdana;fontColor=#FF9933;labelBackgroundColor=none;" parent="15" vertex="1" connectable="0">
                    <mxGeometry x="0.0918" y="-4" relative="1" as="geometry">
                        <mxPoint x="-9" y="-6" as="offset"/>
                    </mxGeometry>
                </mxCell>
                <mxCell id="8" value="&lt;div&gt;&lt;span style=&quot;color: rgb(255 , 255 , 255)&quot;&gt;f1() 方法&lt;/span&gt;&lt;/div&gt;&lt;span style=&quot;color: rgb(255 , 255 , 255)&quot;&gt;&lt;div style=&quot;text-align: left&quot;&gt;&lt;span&gt;// 1. try-catch-finally&lt;/span&gt;&lt;/div&gt;&lt;/span&gt;&lt;span style=&quot;color: rgb(255 , 255 , 255)&quot;&gt;&lt;div style=&quot;text-align: left&quot;&gt;&lt;span&gt;// 2. 抛出异常&lt;/span&gt;&lt;/div&gt;&lt;/span&gt;" style="rounded=0;whiteSpace=wrap;html=1;labelBackgroundColor=none;fontFamily=Verdana;fontSize=13;fontColor=#ffffff;fillColor=#76608a;strokeColor=#432D57;" parent="1" vertex="1">
                    <mxGeometry y="410" width="150" height="60" as="geometry"/>
                </mxCell>
                <mxCell id="13" style="edgeStyle=orthogonalEdgeStyle;curved=1;html=1;entryX=0.25;entryY=1;entryDx=0;entryDy=0;fontFamily=Verdana;fontSize=13;fontColor=#FFFFFF;exitX=0;exitY=0.5;exitDx=0;exitDy=0;strokeWidth=2;strokeColor=#FFFF33;fillColor=#e3c800;" parent="1" source="9" target="8" edge="1">
                    <mxGeometry relative="1" as="geometry"/>
                </mxCell>
                <mxCell id="14" value="throws" style="edgeLabel;html=1;align=center;verticalAlign=middle;resizable=0;points=[];fontSize=13;fontFamily=Verdana;fontColor=#FF9933;labelBackgroundColor=none;" parent="13" vertex="1" connectable="0">
                    <mxGeometry x="0.1388" y="-5" relative="1" as="geometry">
                        <mxPoint x="-10" y="-4" as="offset"/>
                    </mxGeometry>
                </mxCell>
                <mxCell id="9" value="&lt;font color=&quot;#ffffff&quot;&gt;f2() 方法&lt;br&gt;&lt;div style=&quot;text-align: left&quot;&gt;&lt;span&gt;// 1. try-catch-finally&lt;/span&gt;&lt;/div&gt;&lt;/font&gt;&lt;font color=&quot;#ffffff&quot;&gt;&lt;div style=&quot;text-align: left&quot;&gt;&lt;span&gt;// 2. 抛出异常&lt;/span&gt;&lt;/div&gt;&lt;/font&gt;" style="rounded=0;whiteSpace=wrap;html=1;labelBackgroundColor=none;fontFamily=Verdana;fontSize=13;fontColor=#ffffff;fillColor=#76608a;strokeColor=#432D57;" parent="1" vertex="1">
                    <mxGeometry x="60" y="510" width="150" height="60" as="geometry"/>
                </mxCell>
                <mxCell id="20" value="1. try-catch-finally 与 throws 二选一&lt;br style=&quot;font-size: 13px;&quot;&gt;2. 如果程序员没有显示是处理异常，默认 throws" style="rounded=1;whiteSpace=wrap;html=1;labelBackgroundColor=none;fontFamily=Verdana;fontSize=13;fontColor=#ffffff;fontStyle=0;fillColor=#647687;strokeColor=#314354;align=left;" parent="1" vertex="1">
                    <mxGeometry x="80" y="195" width="200" height="90" as="geometry"/>
                </mxCell>
            </root>
        </mxGraphModel>
    </diagram>
</mxfile>